<svg xmlns="http://www.w3.org/2000/svg" xmlns:xlink="http://www.w3.org/1999/xlink" width="24" height="24" viewBox="0 0 24 24">
  <defs>
    <clipPath id="clip-path">
      <rect width="24" height="24" fill="none"/>
    </clipPath>
  </defs>
  <g id="Clock" clip-path="url(#clip-path)">
    <path id="Path_13" data-name="Path 13" d="M3.6,3.6A10.894,10.894,0,0,1,12,0a10.894,10.894,0,0,1,8.4,3.6A10.894,10.894,0,0,1,24,12a10.894,10.894,0,0,1-3.6,8.4A10.894,10.894,0,0,1,12,24a10.894,10.894,0,0,1-8.4-3.6A11.976,11.976,0,0,1,0,12,10.894,10.894,0,0,1,3.6,3.6ZM17.4,17.4,18.8,16l-5-5L12,3H10v9a1.816,1.816,0,0,0,.6,1.4.7.7,0,0,0,.4.2Z" fill="#026"/>
  </g>
</svg>
