<svg xmlns="http://www.w3.org/2000/svg" width="27.773" height="31.131" viewBox="0 0 27.773 31.131">
  <g id="exit-2860_1_" data-name="exit-2860 (1)" transform="translate(0)">
    <g id="Group_110" data-name="Group 110" transform="translate(0 0)">
      <path id="Path_1111" data-name="Path 1111" d="M78.251,81.692c-.011-.022-.02-.045-.029-.069a.981.981,0,0,1-.036-.116c-.006-.021-.012-.043-.016-.064a1.027,1.027,0,0,1-.019-.19h0a1.058,1.058,0,0,1,.019-.19c0-.022.01-.043.016-.064a1.051,1.051,0,0,1,.036-.116c.009-.024.019-.046.03-.069a1.027,1.027,0,0,1,.054-.1c.013-.022.027-.044.042-.064s.011-.02.019-.029l4.05-5.273a1.038,1.038,0,1,1,1.646,1.265l-2.768,3.6H97.432a1.038,1.038,0,0,1,0,2.075H81.294l2.768,3.6a1.038,1.038,0,0,1-1.646,1.265l-4.05-5.272c-.007-.009-.012-.02-.019-.029s-.028-.042-.041-.064A1.074,1.074,0,0,1,78.251,81.692Z" transform="translate(-78.151 -65.688)" fill="#e84337"/>
      <path id="Path_1112" data-name="Path 1112" d="M18.831,31.131H36.5a1.038,1.038,0,0,0,1.038-1.038V1.038A1.038,1.038,0,0,0,36.5,0H18.831a1.038,1.038,0,0,0-1.038,1.038v10.4a1.038,1.038,0,1,0,2.075,0V2.075h15.6v26.98h-15.6v-9.82a1.038,1.038,0,1,0-2.075,0V30.093A1.037,1.037,0,0,0,18.831,31.131Z" transform="translate(-9.767)" fill="#e84337"/>
    </g>
  </g>
</svg>
